<mxfile host="65bd71144e">
    <diagram id="lNgGo1FYRJaFVGigo4OW" name="Page-1">
        <mxGraphModel dx="2097" dy="1231" grid="1" gridSize="10" guides="1" tooltips="1" connect="1" arrows="1" fold="1" page="1" pageScale="1" pageWidth="1169" pageHeight="827" math="0" shadow="0">
            <root>
                <mxCell id="0"/>
                <mxCell id="1" parent="0"/>
                <mxCell id="2" value="MAIN PROJECT" style="whiteSpace=wrap;rounded=1;shadow=1;fillColor=#10739E;strokeColor=none;fontColor=#FFFFFF;fontStyle=1;fontSize=24" vertex="1" parent="1">
                    <mxGeometry x="970" y="20" width="340" height="60" as="geometry"/>
                </mxCell>
                <mxCell id="3" value="SUB-PROJECT 1" style="whiteSpace=wrap;rounded=1;fillColor=#F2931E;strokeColor=none;shadow=1;fontColor=#FFFFFF;fontStyle=1;fontSize=14" vertex="1" parent="1">
                    <mxGeometry x="130" y="139.9999999999998" width="140" height="60" as="geometry"/>
                </mxCell>
                <mxCell id="4" value="SUB-PROJECT 2" style="whiteSpace=wrap;rounded=1;fillColor=#F2931E;strokeColor=none;shadow=1;fontColor=#FFFFFF;fontStyle=1;fontSize=14" vertex="1" parent="1">
                    <mxGeometry x="500" y="139.9999999999998" width="140" height="60" as="geometry"/>
                </mxCell>
                <mxCell id="5" value="SUB-PROJECT 6" style="whiteSpace=wrap;rounded=1;fillColor=#F2931E;strokeColor=none;shadow=1;fontColor=#FFFFFF;fontStyle=1;fontSize=14" vertex="1" parent="1">
                    <mxGeometry x="1980" y="139.9999999999998" width="140" height="60" as="geometry"/>
                </mxCell>
                <mxCell id="6" value="SUB-PROJECT 3" style="whiteSpace=wrap;rounded=1;fillColor=#F2931E;strokeColor=none;shadow=1;fontColor=#FFFFFF;fontStyle=1;fontSize=14" vertex="1" parent="1">
                    <mxGeometry x="870" y="139.9999999999998" width="140" height="60" as="geometry"/>
                </mxCell>
                <mxCell id="7" value="SUB-PROJECT 4" style="whiteSpace=wrap;rounded=1;fillColor=#F2931E;strokeColor=none;shadow=1;fontColor=#FFFFFF;fontStyle=1;fontSize=14" vertex="1" parent="1">
                    <mxGeometry x="1240" y="139.9999999999998" width="140" height="60" as="geometry"/>
                </mxCell>
                <mxCell id="8" value="SUB-PROJECT 5" style="whiteSpace=wrap;rounded=1;fillColor=#F2931E;strokeColor=none;shadow=1;fontColor=#FFFFFF;fontStyle=1;fontSize=14" vertex="1" parent="1">
                    <mxGeometry x="1610" y="139.9999999999998" width="140" height="60" as="geometry"/>
                </mxCell>
                <mxCell id="9" value="SUB-TASK 1" style="whiteSpace=wrap;rounded=1;fillColor=#12AAB5;strokeColor=none;shadow=1;fontColor=#FFFFFF;" vertex="1" parent="1">
                    <mxGeometry x="40" y="270.0000000000001" width="120" height="60" as="geometry"/>
                </mxCell>
                <mxCell id="10" value="SUB-TASK 2" style="whiteSpace=wrap;rounded=1;fillColor=#12AAB5;strokeColor=none;shadow=1;fontColor=#FFFFFF;" vertex="1" parent="1">
                    <mxGeometry x="240" y="270.0000000000001" width="120" height="60" as="geometry"/>
                </mxCell>
                <mxCell id="11" value="WORK&#10;PACKAGE 1" style="whiteSpace=wrap;rounded=1;fillColor=#999999;strokeColor=none;shadow=1;fontColor=#FFFFFF;fontStyle=0" vertex="1" parent="1">
                    <mxGeometry x="39.99999999999996" y="370.0000000000001" width="120" height="60" as="geometry"/>
                </mxCell>
                <mxCell id="12" value="WORK&#10;PACKAGE 2" style="whiteSpace=wrap;rounded=1;fillColor=#999999;strokeColor=none;shadow=1;fontColor=#FFFFFF;fontStyle=0" vertex="1" parent="1">
                    <mxGeometry x="40.0000000000001" y="450.0000000000001" width="120" height="60" as="geometry"/>
                </mxCell>
                <mxCell id="13" value="WORK&#10;PACKAGE 3" style="whiteSpace=wrap;rounded=1;fillColor=#999999;strokeColor=none;shadow=1;fontColor=#FFFFFF;fontStyle=0" vertex="1" parent="1">
                    <mxGeometry x="40.00000000000006" y="530.0000000000001" width="120" height="60" as="geometry"/>
                </mxCell>
                <mxCell id="14" value="WORK&#10;PACKAGE 4" style="whiteSpace=wrap;rounded=1;fillColor=#999999;strokeColor=none;shadow=1;fontColor=#FFFFFF;fontStyle=0" vertex="1" parent="1">
                    <mxGeometry x="40.0000000000002" y="610.0000000000001" width="120" height="60" as="geometry"/>
                </mxCell>
                <mxCell id="15" value="WORK&#10;PACKAGE 5" style="whiteSpace=wrap;rounded=1;fillColor=#999999;strokeColor=none;shadow=1;fontColor=#FFFFFF;fontStyle=0" vertex="1" parent="1">
                    <mxGeometry x="40.000000000000355" y="690.0000000000001" width="120" height="60" as="geometry"/>
                </mxCell>
                <mxCell id="16" value="WORK&#10;PACKAGE 1" style="whiteSpace=wrap;rounded=1;fillColor=#999999;strokeColor=none;shadow=1;fontColor=#FFFFFF;fontStyle=0" vertex="1" parent="1">
                    <mxGeometry x="239.9999999999996" y="370.0000000000001" width="120" height="60" as="geometry"/>
                </mxCell>
                <mxCell id="17" value="WORK&#10;PACKAGE 2" style="whiteSpace=wrap;rounded=1;fillColor=#999999;strokeColor=none;shadow=1;fontColor=#FFFFFF;fontStyle=0" vertex="1" parent="1">
                    <mxGeometry x="239.99999999999977" y="450.0000000000001" width="120" height="60" as="geometry"/>
                </mxCell>
                <mxCell id="18" value="WORK&#10;PACKAGE 3" style="whiteSpace=wrap;rounded=1;fillColor=#999999;strokeColor=none;shadow=1;fontColor=#FFFFFF;fontStyle=0" vertex="1" parent="1">
                    <mxGeometry x="239.99999999999972" y="530.0000000000001" width="120" height="60" as="geometry"/>
                </mxCell>
                <mxCell id="19" value="WORK&#10;PACKAGE 4" style="whiteSpace=wrap;rounded=1;fillColor=#999999;strokeColor=none;shadow=1;fontColor=#FFFFFF;fontStyle=0" vertex="1" parent="1">
                    <mxGeometry x="239.9999999999999" y="610.0000000000001" width="120" height="60" as="geometry"/>
                </mxCell>
                <mxCell id="20" value="WORK&#10;PACKAGE 5" style="whiteSpace=wrap;rounded=1;fillColor=#999999;strokeColor=none;shadow=1;fontColor=#FFFFFF;fontStyle=0" vertex="1" parent="1">
                    <mxGeometry x="240" y="690.0000000000001" width="120" height="60" as="geometry"/>
                </mxCell>
                <mxCell id="21" value="SUB-TASK 1" style="whiteSpace=wrap;rounded=1;fillColor=#12AAB5;strokeColor=none;shadow=1;fontColor=#FFFFFF;" vertex="1" parent="1">
                    <mxGeometry x="409.9999999999998" y="270.0000000000001" width="120" height="60" as="geometry"/>
                </mxCell>
                <mxCell id="22" value="SUB-TASK 2" style="whiteSpace=wrap;rounded=1;fillColor=#12AAB5;strokeColor=none;shadow=1;fontColor=#FFFFFF;" vertex="1" parent="1">
                    <mxGeometry x="609.9999999999998" y="270.0000000000001" width="120" height="60" as="geometry"/>
                </mxCell>
                <mxCell id="23" value="WORK&#10;PACKAGE 1" style="whiteSpace=wrap;rounded=1;fillColor=#999999;strokeColor=none;shadow=1;fontColor=#FFFFFF;fontStyle=0" vertex="1" parent="1">
                    <mxGeometry x="409.9999999999997" y="370.0000000000001" width="120" height="60" as="geometry"/>
                </mxCell>
                <mxCell id="24" value="WORK&#10;PACKAGE 2" style="whiteSpace=wrap;rounded=1;fillColor=#999999;strokeColor=none;shadow=1;fontColor=#FFFFFF;fontStyle=0" vertex="1" parent="1">
                    <mxGeometry x="409.9999999999999" y="450.0000000000001" width="120" height="60" as="geometry"/>
                </mxCell>
                <mxCell id="25" value="WORK&#10;PACKAGE 3" style="whiteSpace=wrap;rounded=1;fillColor=#999999;strokeColor=none;shadow=1;fontColor=#FFFFFF;fontStyle=0" vertex="1" parent="1">
                    <mxGeometry x="409.99999999999983" y="530.0000000000001" width="120" height="60" as="geometry"/>
                </mxCell>
                <mxCell id="26" value="WORK&#10;PACKAGE 4" style="whiteSpace=wrap;rounded=1;fillColor=#999999;strokeColor=none;shadow=1;fontColor=#FFFFFF;fontStyle=0" vertex="1" parent="1">
                    <mxGeometry x="410" y="610.0000000000001" width="120" height="60" as="geometry"/>
                </mxCell>
                <mxCell id="27" value="WORK&#10;PACKAGE 5" style="whiteSpace=wrap;rounded=1;fillColor=#999999;strokeColor=none;shadow=1;fontColor=#FFFFFF;fontStyle=0" vertex="1" parent="1">
                    <mxGeometry x="410.0000000000001" y="690.0000000000001" width="120" height="60" as="geometry"/>
                </mxCell>
                <mxCell id="28" value="WORK&#10;PACKAGE 1" style="whiteSpace=wrap;rounded=1;fillColor=#999999;strokeColor=none;shadow=1;fontColor=#FFFFFF;fontStyle=0" vertex="1" parent="1">
                    <mxGeometry x="609.9999999999993" y="370.0000000000001" width="120" height="60" as="geometry"/>
                </mxCell>
                <mxCell id="29" value="WORK&#10;PACKAGE 2" style="whiteSpace=wrap;rounded=1;fillColor=#999999;strokeColor=none;shadow=1;fontColor=#FFFFFF;fontStyle=0" vertex="1" parent="1">
                    <mxGeometry x="609.9999999999995" y="450.0000000000001" width="120" height="60" as="geometry"/>
                </mxCell>
                <mxCell id="30" value="WORK&#10;PACKAGE 3" style="whiteSpace=wrap;rounded=1;fillColor=#999999;strokeColor=none;shadow=1;fontColor=#FFFFFF;fontStyle=0" vertex="1" parent="1">
                    <mxGeometry x="609.9999999999995" y="530.0000000000001" width="120" height="60" as="geometry"/>
                </mxCell>
                <mxCell id="31" value="WORK&#10;PACKAGE 4" style="whiteSpace=wrap;rounded=1;fillColor=#999999;strokeColor=none;shadow=1;fontColor=#FFFFFF;fontStyle=0" vertex="1" parent="1">
                    <mxGeometry x="609.9999999999997" y="610.0000000000001" width="120" height="60" as="geometry"/>
                </mxCell>
                <mxCell id="32" value="WORK&#10;PACKAGE 5" style="whiteSpace=wrap;rounded=1;fillColor=#999999;strokeColor=none;shadow=1;fontColor=#FFFFFF;fontStyle=0" vertex="1" parent="1">
                    <mxGeometry x="609.9999999999998" y="690.0000000000001" width="120" height="60" as="geometry"/>
                </mxCell>
                <mxCell id="33" value="" style="edgeStyle=elbowEdgeStyle;elbow=vertical;rounded=0;fontColor=#000000;endArrow=none;endFill=0;strokeWidth=8;strokeColor=#23445D;" edge="1" parent="1" source="3" target="9">
                    <mxGeometry width="100" height="100" relative="1" as="geometry">
                        <mxPoint x="-10" y="260" as="sourcePoint"/>
                        <mxPoint x="90" y="160" as="targetPoint"/>
                    </mxGeometry>
                </mxCell>
                <mxCell id="34" value="" style="edgeStyle=elbowEdgeStyle;elbow=vertical;rounded=0;fontColor=#000000;endArrow=none;endFill=0;strokeWidth=8;strokeColor=#23445D;" edge="1" parent="1" source="3" target="10">
                    <mxGeometry width="100" height="100" relative="1" as="geometry">
                        <mxPoint x="330" y="260" as="sourcePoint"/>
                        <mxPoint x="430" y="160" as="targetPoint"/>
                    </mxGeometry>
                </mxCell>
                <mxCell id="35" value="" style="edgeStyle=elbowEdgeStyle;elbow=horizontal;rounded=0;fontColor=#000000;endArrow=none;endFill=0;strokeWidth=8;strokeColor=#23445D;" edge="1" parent="1" source="9" target="11">
                    <mxGeometry width="100" height="100" relative="1" as="geometry">
                        <mxPoint x="-20" y="450" as="sourcePoint"/>
                        <mxPoint x="80" y="350" as="targetPoint"/>
                        <Array as="points">
                            <mxPoint x="20" y="350"/>
                        </Array>
                    </mxGeometry>
                </mxCell>
                <mxCell id="36" value="" style="edgeStyle=elbowEdgeStyle;elbow=horizontal;rounded=0;fontColor=#000000;endArrow=none;endFill=0;strokeWidth=8;strokeColor=#23445D;" edge="1" parent="1" source="9" target="12">
                    <mxGeometry width="100" height="100" relative="1" as="geometry">
                        <mxPoint x="50" y="310" as="sourcePoint"/>
                        <mxPoint x="50" y="410" as="targetPoint"/>
                        <Array as="points">
                            <mxPoint x="20" y="370"/>
                        </Array>
                    </mxGeometry>
                </mxCell>
                <mxCell id="37" value="" style="edgeStyle=elbowEdgeStyle;elbow=horizontal;rounded=0;fontColor=#000000;endArrow=none;endFill=0;strokeWidth=8;strokeColor=#23445D;" edge="1" parent="1" source="9" target="15">
                    <mxGeometry width="100" height="100" relative="1" as="geometry">
                        <mxPoint x="50" y="310" as="sourcePoint"/>
                        <mxPoint x="50" y="410" as="targetPoint"/>
                        <Array as="points">
                            <mxPoint x="20" y="510"/>
                        </Array>
                    </mxGeometry>
                </mxCell>
                <mxCell id="38" value="" style="edgeStyle=elbowEdgeStyle;elbow=horizontal;rounded=0;fontColor=#000000;endArrow=none;endFill=0;strokeWidth=8;strokeColor=#23445D;" edge="1" parent="1" source="9" target="14">
                    <mxGeometry width="100" height="100" relative="1" as="geometry">
                        <mxPoint x="70" y="330" as="sourcePoint"/>
                        <mxPoint x="70" y="430" as="targetPoint"/>
                        <Array as="points">
                            <mxPoint x="20" y="380"/>
                        </Array>
                    </mxGeometry>
                </mxCell>
                <mxCell id="39" value="" style="edgeStyle=elbowEdgeStyle;elbow=horizontal;rounded=0;fontColor=#000000;endArrow=none;endFill=0;strokeWidth=8;strokeColor=#23445D;" edge="1" parent="1" source="9" target="13">
                    <mxGeometry width="100" height="100" relative="1" as="geometry">
                        <mxPoint x="80" y="340" as="sourcePoint"/>
                        <mxPoint x="80" y="440" as="targetPoint"/>
                        <Array as="points">
                            <mxPoint x="20" y="400"/>
                        </Array>
                    </mxGeometry>
                </mxCell>
                <mxCell id="40" value="" style="edgeStyle=elbowEdgeStyle;elbow=horizontal;rounded=0;fontColor=#000000;endArrow=none;endFill=0;strokeWidth=8;strokeColor=#23445D;" edge="1" parent="1" target="16">
                    <mxGeometry width="100" height="100" relative="1" as="geometry">
                        <mxPoint x="230" y="300.0000000000004" as="sourcePoint"/>
                        <mxPoint x="230" y="400.0000000000004" as="targetPoint"/>
                        <Array as="points">
                            <mxPoint x="220" y="350"/>
                        </Array>
                    </mxGeometry>
                </mxCell>
                <mxCell id="41" value="" style="edgeStyle=elbowEdgeStyle;elbow=horizontal;rounded=0;fontColor=#000000;endArrow=none;endFill=0;strokeWidth=8;strokeColor=#23445D;" edge="1" parent="1" source="10" target="17">
                    <mxGeometry width="100" height="100" relative="1" as="geometry">
                        <mxPoint x="230" y="300.0000000000004" as="sourcePoint"/>
                        <mxPoint x="230" y="480.00000000000045" as="targetPoint"/>
                        <Array as="points">
                            <mxPoint x="220" y="390"/>
                        </Array>
                    </mxGeometry>
                </mxCell>
                <mxCell id="42" value="" style="edgeStyle=elbowEdgeStyle;elbow=horizontal;rounded=0;fontColor=#000000;endArrow=none;endFill=0;strokeWidth=8;strokeColor=#23445D;" edge="1" parent="1" source="10" target="20">
                    <mxGeometry width="100" height="100" relative="1" as="geometry">
                        <mxPoint x="230" y="300.0000000000004" as="sourcePoint"/>
                        <mxPoint x="230.00000000000045" y="720.0000000000003" as="targetPoint"/>
                        <Array as="points">
                            <mxPoint x="220" y="510"/>
                        </Array>
                    </mxGeometry>
                </mxCell>
                <mxCell id="43" value="" style="edgeStyle=elbowEdgeStyle;elbow=horizontal;rounded=0;fontColor=#000000;endArrow=none;endFill=0;strokeWidth=8;strokeColor=#23445D;" edge="1" parent="1" source="10" target="19">
                    <mxGeometry width="100" height="100" relative="1" as="geometry">
                        <mxPoint x="230" y="300.0000000000004" as="sourcePoint"/>
                        <mxPoint x="230.00000000000023" y="640.0000000000003" as="targetPoint"/>
                        <Array as="points">
                            <mxPoint x="220" y="470"/>
                        </Array>
                    </mxGeometry>
                </mxCell>
                <mxCell id="44" value="" style="edgeStyle=elbowEdgeStyle;elbow=horizontal;rounded=0;fontColor=#000000;endArrow=none;endFill=0;strokeWidth=8;strokeColor=#23445D;" edge="1" parent="1" source="10" target="18">
                    <mxGeometry width="100" height="100" relative="1" as="geometry">
                        <mxPoint x="230" y="300.0000000000004" as="sourcePoint"/>
                        <mxPoint x="230" y="560.0000000000003" as="targetPoint"/>
                        <Array as="points">
                            <mxPoint x="220" y="430"/>
                        </Array>
                    </mxGeometry>
                </mxCell>
                <mxCell id="45" value="" style="edgeStyle=elbowEdgeStyle;elbow=vertical;rounded=0;fontColor=#000000;endArrow=none;endFill=0;strokeWidth=8;strokeColor=#23445D;" edge="1" parent="1" source="4" target="21">
                    <mxGeometry width="100" height="100" relative="1" as="geometry">
                        <mxPoint x="210" y="209.99999999999977" as="sourcePoint"/>
                        <mxPoint x="110" y="280" as="targetPoint"/>
                    </mxGeometry>
                </mxCell>
                <mxCell id="46" value="" style="edgeStyle=elbowEdgeStyle;elbow=vertical;rounded=0;fontColor=#000000;endArrow=none;endFill=0;strokeWidth=8;strokeColor=#23445D;" edge="1" parent="1" source="4" target="22">
                    <mxGeometry width="100" height="100" relative="1" as="geometry">
                        <mxPoint x="210" y="209.99999999999977" as="sourcePoint"/>
                        <mxPoint x="310" y="280" as="targetPoint"/>
                    </mxGeometry>
                </mxCell>
                <mxCell id="47" value="" style="edgeStyle=elbowEdgeStyle;elbow=horizontal;rounded=0;fontColor=#000000;endArrow=none;endFill=0;strokeWidth=8;strokeColor=#23445D;" edge="1" parent="1" source="21" target="23">
                    <mxGeometry width="100" height="100" relative="1" as="geometry">
                        <mxPoint x="390" y="300.00000000000045" as="sourcePoint"/>
                        <mxPoint x="399.99999999999955" y="400" as="targetPoint"/>
                        <Array as="points">
                            <mxPoint x="390" y="350"/>
                        </Array>
                    </mxGeometry>
                </mxCell>
                <mxCell id="48" value="" style="edgeStyle=elbowEdgeStyle;elbow=horizontal;rounded=0;fontColor=#000000;endArrow=none;endFill=0;strokeWidth=8;strokeColor=#23445D;" edge="1" parent="1" source="21" target="24">
                    <mxGeometry width="100" height="100" relative="1" as="geometry">
                        <mxPoint x="400" y="300" as="sourcePoint"/>
                        <mxPoint x="399.9999999999998" y="480" as="targetPoint"/>
                        <Array as="points">
                            <mxPoint x="390" y="390"/>
                        </Array>
                    </mxGeometry>
                </mxCell>
                <mxCell id="49" value="" style="edgeStyle=elbowEdgeStyle;elbow=horizontal;rounded=0;fontColor=#000000;endArrow=none;endFill=0;strokeWidth=8;strokeColor=#23445D;" edge="1" parent="1" source="21" target="27">
                    <mxGeometry width="100" height="100" relative="1" as="geometry">
                        <mxPoint x="400" y="300" as="sourcePoint"/>
                        <mxPoint x="400" y="720" as="targetPoint"/>
                        <Array as="points">
                            <mxPoint x="390" y="520"/>
                        </Array>
                    </mxGeometry>
                </mxCell>
                <mxCell id="50" value="" style="edgeStyle=elbowEdgeStyle;elbow=horizontal;rounded=0;fontColor=#000000;endArrow=none;endFill=0;strokeWidth=8;strokeColor=#23445D;" edge="1" parent="1" source="21" target="26">
                    <mxGeometry width="100" height="100" relative="1" as="geometry">
                        <mxPoint x="400" y="300" as="sourcePoint"/>
                        <mxPoint x="400" y="640" as="targetPoint"/>
                        <Array as="points">
                            <mxPoint x="390" y="470"/>
                        </Array>
                    </mxGeometry>
                </mxCell>
                <mxCell id="51" value="" style="edgeStyle=elbowEdgeStyle;elbow=horizontal;rounded=0;fontColor=#000000;endArrow=none;endFill=0;strokeWidth=8;strokeColor=#23445D;" edge="1" parent="1" source="21" target="25">
                    <mxGeometry width="100" height="100" relative="1" as="geometry">
                        <mxPoint x="400" y="300" as="sourcePoint"/>
                        <mxPoint x="399.9999999999998" y="560" as="targetPoint"/>
                        <Array as="points">
                            <mxPoint x="390" y="440"/>
                        </Array>
                    </mxGeometry>
                </mxCell>
                <mxCell id="52" value="" style="edgeStyle=elbowEdgeStyle;elbow=horizontal;rounded=0;fontColor=#000000;endArrow=none;endFill=0;strokeWidth=8;strokeColor=#23445D;" edge="1" parent="1" source="22" target="28">
                    <mxGeometry width="100" height="100" relative="1" as="geometry">
                        <mxPoint x="580" y="300.00000000000045" as="sourcePoint"/>
                        <mxPoint x="589.9999999999995" y="400" as="targetPoint"/>
                        <Array as="points">
                            <mxPoint x="590" y="350"/>
                        </Array>
                    </mxGeometry>
                </mxCell>
                <mxCell id="53" value="" style="edgeStyle=elbowEdgeStyle;elbow=horizontal;rounded=0;fontColor=#000000;endArrow=none;endFill=0;strokeWidth=8;strokeColor=#23445D;" edge="1" parent="1" source="22" target="29">
                    <mxGeometry width="100" height="100" relative="1" as="geometry">
                        <mxPoint x="590" y="300" as="sourcePoint"/>
                        <mxPoint x="589.9999999999998" y="480" as="targetPoint"/>
                        <Array as="points">
                            <mxPoint x="590" y="390"/>
                        </Array>
                    </mxGeometry>
                </mxCell>
                <mxCell id="54" value="" style="edgeStyle=elbowEdgeStyle;elbow=horizontal;rounded=0;fontColor=#000000;endArrow=none;endFill=0;strokeWidth=8;strokeColor=#23445D;" edge="1" parent="1" source="22" target="32">
                    <mxGeometry width="100" height="100" relative="1" as="geometry">
                        <mxPoint x="590" y="300" as="sourcePoint"/>
                        <mxPoint x="590" y="720" as="targetPoint"/>
                        <Array as="points">
                            <mxPoint x="590" y="510"/>
                        </Array>
                    </mxGeometry>
                </mxCell>
                <mxCell id="55" value="" style="edgeStyle=elbowEdgeStyle;elbow=horizontal;rounded=0;fontColor=#000000;endArrow=none;endFill=0;strokeWidth=8;strokeColor=#23445D;" edge="1" parent="1" source="22" target="31">
                    <mxGeometry width="100" height="100" relative="1" as="geometry">
                        <mxPoint x="590" y="300" as="sourcePoint"/>
                        <mxPoint x="590" y="640" as="targetPoint"/>
                        <Array as="points">
                            <mxPoint x="590" y="470"/>
                        </Array>
                    </mxGeometry>
                </mxCell>
                <mxCell id="56" value="" style="edgeStyle=elbowEdgeStyle;elbow=horizontal;rounded=0;fontColor=#000000;endArrow=none;endFill=0;strokeWidth=8;strokeColor=#23445D;" edge="1" parent="1" source="22" target="30">
                    <mxGeometry width="100" height="100" relative="1" as="geometry">
                        <mxPoint x="590" y="300" as="sourcePoint"/>
                        <mxPoint x="589.9999999999998" y="560" as="targetPoint"/>
                        <Array as="points">
                            <mxPoint x="590" y="440"/>
                        </Array>
                    </mxGeometry>
                </mxCell>
                <mxCell id="57" value="SUB-TASK 1" style="whiteSpace=wrap;rounded=1;fillColor=#12AAB5;strokeColor=none;shadow=1;fontColor=#FFFFFF;" vertex="1" parent="1">
                    <mxGeometry x="779.9999999999998" y="270.0000000000001" width="120" height="60" as="geometry"/>
                </mxCell>
                <mxCell id="58" value="SUB-TASK 2" style="whiteSpace=wrap;rounded=1;fillColor=#12AAB5;strokeColor=none;shadow=1;fontColor=#FFFFFF;" vertex="1" parent="1">
                    <mxGeometry x="979.9999999999998" y="270.0000000000001" width="120" height="60" as="geometry"/>
                </mxCell>
                <mxCell id="59" value="WORK&#10;PACKAGE 1" style="whiteSpace=wrap;rounded=1;fillColor=#999999;strokeColor=none;shadow=1;fontColor=#FFFFFF;fontStyle=0" vertex="1" parent="1">
                    <mxGeometry x="779.9999999999998" y="370.0000000000001" width="120" height="60" as="geometry"/>
                </mxCell>
                <mxCell id="60" value="WORK&#10;PACKAGE 2" style="whiteSpace=wrap;rounded=1;fillColor=#999999;strokeColor=none;shadow=1;fontColor=#FFFFFF;fontStyle=0" vertex="1" parent="1">
                    <mxGeometry x="779.9999999999999" y="450.0000000000001" width="120" height="60" as="geometry"/>
                </mxCell>
                <mxCell id="61" value="WORK&#10;PACKAGE 3" style="whiteSpace=wrap;rounded=1;fillColor=#999999;strokeColor=none;shadow=1;fontColor=#FFFFFF;fontStyle=0" vertex="1" parent="1">
                    <mxGeometry x="779.9999999999998" y="530.0000000000001" width="120" height="60" as="geometry"/>
                </mxCell>
                <mxCell id="62" value="WORK&#10;PACKAGE 4" style="whiteSpace=wrap;rounded=1;fillColor=#999999;strokeColor=none;shadow=1;fontColor=#FFFFFF;fontStyle=0" vertex="1" parent="1">
                    <mxGeometry x="780" y="610.0000000000001" width="120" height="60" as="geometry"/>
                </mxCell>
                <mxCell id="63" value="WORK&#10;PACKAGE 5" style="whiteSpace=wrap;rounded=1;fillColor=#999999;strokeColor=none;shadow=1;fontColor=#FFFFFF;fontStyle=0" vertex="1" parent="1">
                    <mxGeometry x="780.0000000000001" y="690.0000000000001" width="120" height="60" as="geometry"/>
                </mxCell>
                <mxCell id="64" value="WORK&#10;PACKAGE 1" style="whiteSpace=wrap;rounded=1;fillColor=#999999;strokeColor=none;shadow=1;fontColor=#FFFFFF;fontStyle=0" vertex="1" parent="1">
                    <mxGeometry x="979.9999999999993" y="370.0000000000001" width="120" height="60" as="geometry"/>
                </mxCell>
                <mxCell id="65" value="WORK&#10;PACKAGE 2" style="whiteSpace=wrap;rounded=1;fillColor=#999999;strokeColor=none;shadow=1;fontColor=#FFFFFF;fontStyle=0" vertex="1" parent="1">
                    <mxGeometry x="979.9999999999995" y="450.0000000000001" width="120" height="60" as="geometry"/>
                </mxCell>
                <mxCell id="66" value="WORK&#10;PACKAGE 3" style="whiteSpace=wrap;rounded=1;fillColor=#999999;strokeColor=none;shadow=1;fontColor=#FFFFFF;fontStyle=0" vertex="1" parent="1">
                    <mxGeometry x="979.9999999999995" y="530.0000000000001" width="120" height="60" as="geometry"/>
                </mxCell>
                <mxCell id="67" value="WORK&#10;PACKAGE 4" style="whiteSpace=wrap;rounded=1;fillColor=#999999;strokeColor=none;shadow=1;fontColor=#FFFFFF;fontStyle=0" vertex="1" parent="1">
                    <mxGeometry x="979.9999999999995" y="610.0000000000001" width="120" height="60" as="geometry"/>
                </mxCell>
                <mxCell id="68" value="WORK&#10;PACKAGE 5" style="whiteSpace=wrap;rounded=1;fillColor=#999999;strokeColor=none;shadow=1;fontColor=#FFFFFF;fontStyle=0" vertex="1" parent="1">
                    <mxGeometry x="979.9999999999998" y="690.0000000000001" width="120" height="60" as="geometry"/>
                </mxCell>
                <mxCell id="69" value="" style="edgeStyle=elbowEdgeStyle;elbow=horizontal;rounded=0;fontColor=#000000;endArrow=none;endFill=0;strokeWidth=8;strokeColor=#23445D;" edge="1" parent="1" source="57" target="59">
                    <mxGeometry width="100" height="100" relative="1" as="geometry">
                        <mxPoint x="760" y="300.00000000000045" as="sourcePoint"/>
                        <mxPoint x="769.9999999999995" y="400" as="targetPoint"/>
                        <Array as="points">
                            <mxPoint x="760" y="350"/>
                        </Array>
                    </mxGeometry>
                </mxCell>
                <mxCell id="70" value="" style="edgeStyle=elbowEdgeStyle;elbow=horizontal;rounded=0;fontColor=#000000;endArrow=none;endFill=0;strokeWidth=8;strokeColor=#23445D;" edge="1" parent="1" source="57" target="60">
                    <mxGeometry width="100" height="100" relative="1" as="geometry">
                        <mxPoint x="770" y="300" as="sourcePoint"/>
                        <mxPoint x="769.9999999999998" y="480" as="targetPoint"/>
                        <Array as="points">
                            <mxPoint x="760" y="390"/>
                        </Array>
                    </mxGeometry>
                </mxCell>
                <mxCell id="71" value="" style="edgeStyle=elbowEdgeStyle;elbow=horizontal;rounded=0;fontColor=#000000;endArrow=none;endFill=0;strokeWidth=8;strokeColor=#23445D;" edge="1" parent="1" source="57" target="63">
                    <mxGeometry width="100" height="100" relative="1" as="geometry">
                        <mxPoint x="770" y="300" as="sourcePoint"/>
                        <mxPoint x="770" y="720" as="targetPoint"/>
                        <Array as="points">
                            <mxPoint x="760" y="520"/>
                        </Array>
                    </mxGeometry>
                </mxCell>
                <mxCell id="72" value="" style="edgeStyle=elbowEdgeStyle;elbow=horizontal;rounded=0;fontColor=#000000;endArrow=none;endFill=0;strokeWidth=8;strokeColor=#23445D;" edge="1" parent="1" source="57" target="62">
                    <mxGeometry width="100" height="100" relative="1" as="geometry">
                        <mxPoint x="770" y="300" as="sourcePoint"/>
                        <mxPoint x="770" y="640" as="targetPoint"/>
                        <Array as="points">
                            <mxPoint x="760" y="470"/>
                        </Array>
                    </mxGeometry>
                </mxCell>
                <mxCell id="73" value="" style="edgeStyle=elbowEdgeStyle;elbow=horizontal;rounded=0;fontColor=#000000;endArrow=none;endFill=0;strokeWidth=8;strokeColor=#23445D;" edge="1" parent="1" source="57" target="61">
                    <mxGeometry width="100" height="100" relative="1" as="geometry">
                        <mxPoint x="770" y="300" as="sourcePoint"/>
                        <mxPoint x="769.9999999999998" y="560" as="targetPoint"/>
                        <Array as="points">
                            <mxPoint x="760" y="440"/>
                        </Array>
                    </mxGeometry>
                </mxCell>
                <mxCell id="74" value="" style="edgeStyle=elbowEdgeStyle;elbow=horizontal;rounded=0;fontColor=#000000;endArrow=none;endFill=0;strokeWidth=8;strokeColor=#23445D;" edge="1" parent="1" source="58" target="64">
                    <mxGeometry width="100" height="100" relative="1" as="geometry">
                        <mxPoint x="950" y="300.00000000000045" as="sourcePoint"/>
                        <mxPoint x="959.9999999999995" y="400" as="targetPoint"/>
                        <Array as="points">
                            <mxPoint x="960" y="350"/>
                        </Array>
                    </mxGeometry>
                </mxCell>
                <mxCell id="75" value="" style="edgeStyle=elbowEdgeStyle;elbow=horizontal;rounded=0;fontColor=#000000;endArrow=none;endFill=0;strokeWidth=8;strokeColor=#23445D;" edge="1" parent="1" source="58" target="65">
                    <mxGeometry width="100" height="100" relative="1" as="geometry">
                        <mxPoint x="960" y="300" as="sourcePoint"/>
                        <mxPoint x="959.9999999999998" y="480" as="targetPoint"/>
                        <Array as="points">
                            <mxPoint x="960" y="390"/>
                        </Array>
                    </mxGeometry>
                </mxCell>
                <mxCell id="76" value="" style="edgeStyle=elbowEdgeStyle;elbow=horizontal;rounded=0;fontColor=#000000;endArrow=none;endFill=0;strokeWidth=8;strokeColor=#23445D;" edge="1" parent="1" source="58" target="68">
                    <mxGeometry width="100" height="100" relative="1" as="geometry">
                        <mxPoint x="960" y="300" as="sourcePoint"/>
                        <mxPoint x="960" y="720" as="targetPoint"/>
                        <Array as="points">
                            <mxPoint x="960" y="510"/>
                        </Array>
                    </mxGeometry>
                </mxCell>
                <mxCell id="77" value="" style="edgeStyle=elbowEdgeStyle;elbow=horizontal;rounded=0;fontColor=#000000;endArrow=none;endFill=0;strokeWidth=8;strokeColor=#23445D;" edge="1" parent="1" source="58" target="67">
                    <mxGeometry width="100" height="100" relative="1" as="geometry">
                        <mxPoint x="960" y="300" as="sourcePoint"/>
                        <mxPoint x="960" y="640" as="targetPoint"/>
                        <Array as="points">
                            <mxPoint x="960" y="470"/>
                        </Array>
                    </mxGeometry>
                </mxCell>
                <mxCell id="78" value="" style="edgeStyle=elbowEdgeStyle;elbow=horizontal;rounded=0;fontColor=#000000;endArrow=none;endFill=0;strokeWidth=8;strokeColor=#23445D;" edge="1" parent="1" source="58" target="66">
                    <mxGeometry width="100" height="100" relative="1" as="geometry">
                        <mxPoint x="960" y="300" as="sourcePoint"/>
                        <mxPoint x="959.9999999999998" y="560" as="targetPoint"/>
                        <Array as="points">
                            <mxPoint x="960" y="440"/>
                        </Array>
                    </mxGeometry>
                </mxCell>
                <mxCell id="79" value="SUB-TASK 1" style="whiteSpace=wrap;rounded=1;fillColor=#12AAB5;strokeColor=none;shadow=1;fontColor=#FFFFFF;" vertex="1" parent="1">
                    <mxGeometry x="1149.9999999999998" y="270.0000000000002" width="120" height="60" as="geometry"/>
                </mxCell>
                <mxCell id="80" value="SUB-TASK 2" style="whiteSpace=wrap;rounded=1;fillColor=#12AAB5;strokeColor=none;shadow=1;fontColor=#FFFFFF;" vertex="1" parent="1">
                    <mxGeometry x="1349.9999999999998" y="270.0000000000002" width="120" height="60" as="geometry"/>
                </mxCell>
                <mxCell id="81" value="WORK&#10;PACKAGE 1" style="whiteSpace=wrap;rounded=1;fillColor=#999999;strokeColor=none;shadow=1;fontColor=#FFFFFF;fontStyle=0" vertex="1" parent="1">
                    <mxGeometry x="1149.9999999999998" y="370.0000000000002" width="120" height="60" as="geometry"/>
                </mxCell>
                <mxCell id="82" value="WORK&#10;PACKAGE 2" style="whiteSpace=wrap;rounded=1;fillColor=#999999;strokeColor=none;shadow=1;fontColor=#FFFFFF;fontStyle=0" vertex="1" parent="1">
                    <mxGeometry x="1150" y="450.0000000000002" width="120" height="60" as="geometry"/>
                </mxCell>
                <mxCell id="83" value="WORK&#10;PACKAGE 3" style="whiteSpace=wrap;rounded=1;fillColor=#999999;strokeColor=none;shadow=1;fontColor=#FFFFFF;fontStyle=0" vertex="1" parent="1">
                    <mxGeometry x="1149.9999999999998" y="530.0000000000002" width="120" height="60" as="geometry"/>
                </mxCell>
                <mxCell id="84" value="WORK&#10;PACKAGE 4" style="whiteSpace=wrap;rounded=1;fillColor=#999999;strokeColor=none;shadow=1;fontColor=#FFFFFF;fontStyle=0" vertex="1" parent="1">
                    <mxGeometry x="1150" y="610.0000000000002" width="120" height="60" as="geometry"/>
                </mxCell>
                <mxCell id="85" value="WORK&#10;PACKAGE 5" style="whiteSpace=wrap;rounded=1;fillColor=#999999;strokeColor=none;shadow=1;fontColor=#FFFFFF;fontStyle=0" vertex="1" parent="1">
                    <mxGeometry x="1150" y="690.0000000000002" width="120" height="60" as="geometry"/>
                </mxCell>
                <mxCell id="86" value="WORK&#10;PACKAGE 1" style="whiteSpace=wrap;rounded=1;fillColor=#999999;strokeColor=none;shadow=1;fontColor=#FFFFFF;fontStyle=0" vertex="1" parent="1">
                    <mxGeometry x="1349.9999999999993" y="370.0000000000002" width="120" height="60" as="geometry"/>
                </mxCell>
                <mxCell id="87" value="WORK&#10;PACKAGE 2" style="whiteSpace=wrap;rounded=1;fillColor=#999999;strokeColor=none;shadow=1;fontColor=#FFFFFF;fontStyle=0" vertex="1" parent="1">
                    <mxGeometry x="1349.9999999999995" y="450.0000000000002" width="120" height="60" as="geometry"/>
                </mxCell>
                <mxCell id="88" value="WORK&#10;PACKAGE 3" style="whiteSpace=wrap;rounded=1;fillColor=#999999;strokeColor=none;shadow=1;fontColor=#FFFFFF;fontStyle=0" vertex="1" parent="1">
                    <mxGeometry x="1349.9999999999995" y="530.0000000000002" width="120" height="60" as="geometry"/>
                </mxCell>
                <mxCell id="89" value="WORK&#10;PACKAGE 4" style="whiteSpace=wrap;rounded=1;fillColor=#999999;strokeColor=none;shadow=1;fontColor=#FFFFFF;fontStyle=0" vertex="1" parent="1">
                    <mxGeometry x="1349.9999999999995" y="610.0000000000002" width="120" height="60" as="geometry"/>
                </mxCell>
                <mxCell id="90" value="WORK&#10;PACKAGE 5" style="whiteSpace=wrap;rounded=1;fillColor=#999999;strokeColor=none;shadow=1;fontColor=#FFFFFF;fontStyle=0" vertex="1" parent="1">
                    <mxGeometry x="1349.9999999999998" y="690.0000000000002" width="120" height="60" as="geometry"/>
                </mxCell>
                <mxCell id="91" value="" style="edgeStyle=elbowEdgeStyle;elbow=horizontal;rounded=0;fontColor=#000000;endArrow=none;endFill=0;strokeWidth=8;strokeColor=#23445D;" edge="1" parent="1" source="79" target="81">
                    <mxGeometry width="100" height="100" relative="1" as="geometry">
                        <mxPoint x="1130" y="300.00000000000057" as="sourcePoint"/>
                        <mxPoint x="1139.9999999999995" y="400.0000000000001" as="targetPoint"/>
                        <Array as="points">
                            <mxPoint x="1130" y="350.0000000000001"/>
                        </Array>
                    </mxGeometry>
                </mxCell>
                <mxCell id="92" value="" style="edgeStyle=elbowEdgeStyle;elbow=horizontal;rounded=0;fontColor=#000000;endArrow=none;endFill=0;strokeWidth=8;strokeColor=#23445D;" edge="1" parent="1" source="79" target="82">
                    <mxGeometry width="100" height="100" relative="1" as="geometry">
                        <mxPoint x="1140" y="300.0000000000001" as="sourcePoint"/>
                        <mxPoint x="1139.9999999999998" y="480.0000000000001" as="targetPoint"/>
                        <Array as="points">
                            <mxPoint x="1130" y="390.0000000000001"/>
                        </Array>
                    </mxGeometry>
                </mxCell>
                <mxCell id="93" value="" style="edgeStyle=elbowEdgeStyle;elbow=horizontal;rounded=0;fontColor=#000000;endArrow=none;endFill=0;strokeWidth=8;strokeColor=#23445D;" edge="1" parent="1" source="79" target="85">
                    <mxGeometry width="100" height="100" relative="1" as="geometry">
                        <mxPoint x="1140" y="300.0000000000001" as="sourcePoint"/>
                        <mxPoint x="1140" y="720.0000000000001" as="targetPoint"/>
                        <Array as="points">
                            <mxPoint x="1130" y="520.0000000000001"/>
                        </Array>
                    </mxGeometry>
                </mxCell>
                <mxCell id="94" value="" style="edgeStyle=elbowEdgeStyle;elbow=horizontal;rounded=0;fontColor=#000000;endArrow=none;endFill=0;strokeWidth=8;strokeColor=#23445D;" edge="1" parent="1" source="79" target="84">
                    <mxGeometry width="100" height="100" relative="1" as="geometry">
                        <mxPoint x="1140" y="300.0000000000001" as="sourcePoint"/>
                        <mxPoint x="1140" y="640.0000000000001" as="targetPoint"/>
                        <Array as="points">
                            <mxPoint x="1130" y="470.0000000000001"/>
                        </Array>
                    </mxGeometry>
                </mxCell>
                <mxCell id="95" value="" style="edgeStyle=elbowEdgeStyle;elbow=horizontal;rounded=0;fontColor=#000000;endArrow=none;endFill=0;strokeWidth=8;strokeColor=#23445D;" edge="1" parent="1" source="79" target="83">
                    <mxGeometry width="100" height="100" relative="1" as="geometry">
                        <mxPoint x="1140" y="300.0000000000001" as="sourcePoint"/>
                        <mxPoint x="1139.9999999999998" y="560.0000000000001" as="targetPoint"/>
                        <Array as="points">
                            <mxPoint x="1130" y="440.0000000000001"/>
                        </Array>
                    </mxGeometry>
                </mxCell>
                <mxCell id="96" value="" style="edgeStyle=elbowEdgeStyle;elbow=horizontal;rounded=0;fontColor=#000000;endArrow=none;endFill=0;strokeWidth=8;strokeColor=#23445D;" edge="1" parent="1" source="80" target="86">
                    <mxGeometry width="100" height="100" relative="1" as="geometry">
                        <mxPoint x="1320" y="300.00000000000057" as="sourcePoint"/>
                        <mxPoint x="1329.9999999999995" y="400.0000000000001" as="targetPoint"/>
                        <Array as="points">
                            <mxPoint x="1330" y="350.0000000000001"/>
                        </Array>
                    </mxGeometry>
                </mxCell>
                <mxCell id="97" value="" style="edgeStyle=elbowEdgeStyle;elbow=horizontal;rounded=0;fontColor=#000000;endArrow=none;endFill=0;strokeWidth=8;strokeColor=#23445D;" edge="1" parent="1" source="80" target="87">
                    <mxGeometry width="100" height="100" relative="1" as="geometry">
                        <mxPoint x="1330" y="300.0000000000001" as="sourcePoint"/>
                        <mxPoint x="1329.9999999999998" y="480.0000000000001" as="targetPoint"/>
                        <Array as="points">
                            <mxPoint x="1330" y="390.0000000000001"/>
                        </Array>
                    </mxGeometry>
                </mxCell>
                <mxCell id="98" value="" style="edgeStyle=elbowEdgeStyle;elbow=horizontal;rounded=0;fontColor=#000000;endArrow=none;endFill=0;strokeWidth=8;strokeColor=#23445D;" edge="1" parent="1" source="80" target="90">
                    <mxGeometry width="100" height="100" relative="1" as="geometry">
                        <mxPoint x="1330" y="300.0000000000001" as="sourcePoint"/>
                        <mxPoint x="1330" y="720.0000000000001" as="targetPoint"/>
                        <Array as="points">
                            <mxPoint x="1330" y="510.0000000000001"/>
                        </Array>
                    </mxGeometry>
                </mxCell>
                <mxCell id="99" value="" style="edgeStyle=elbowEdgeStyle;elbow=horizontal;rounded=0;fontColor=#000000;endArrow=none;endFill=0;strokeWidth=8;strokeColor=#23445D;" edge="1" parent="1" source="80" target="89">
                    <mxGeometry width="100" height="100" relative="1" as="geometry">
                        <mxPoint x="1330" y="300.0000000000001" as="sourcePoint"/>
                        <mxPoint x="1330" y="640.0000000000001" as="targetPoint"/>
                        <Array as="points">
                            <mxPoint x="1330" y="470.0000000000001"/>
                        </Array>
                    </mxGeometry>
                </mxCell>
                <mxCell id="100" value="" style="edgeStyle=elbowEdgeStyle;elbow=horizontal;rounded=0;fontColor=#000000;endArrow=none;endFill=0;strokeWidth=8;strokeColor=#23445D;" edge="1" parent="1" source="80" target="88">
                    <mxGeometry width="100" height="100" relative="1" as="geometry">
                        <mxPoint x="1330" y="300.0000000000001" as="sourcePoint"/>
                        <mxPoint x="1329.9999999999998" y="560.0000000000001" as="targetPoint"/>
                        <Array as="points">
                            <mxPoint x="1330" y="440.0000000000001"/>
                        </Array>
                    </mxGeometry>
                </mxCell>
                <mxCell id="101" value="SUB-TASK 1" style="whiteSpace=wrap;rounded=1;fillColor=#12AAB5;strokeColor=none;shadow=1;fontColor=#FFFFFF;" vertex="1" parent="1">
                    <mxGeometry x="1519.9999999999998" y="269.9999999999999" width="120" height="60" as="geometry"/>
                </mxCell>
                <mxCell id="102" value="SUB-TASK 2" style="whiteSpace=wrap;rounded=1;fillColor=#12AAB5;strokeColor=none;shadow=1;fontColor=#FFFFFF;" vertex="1" parent="1">
                    <mxGeometry x="1719.9999999999998" y="269.9999999999999" width="120" height="60" as="geometry"/>
                </mxCell>
                <mxCell id="103" value="WORK&#10;PACKAGE 1" style="whiteSpace=wrap;rounded=1;fillColor=#999999;strokeColor=none;shadow=1;fontColor=#FFFFFF;fontStyle=0" vertex="1" parent="1">
                    <mxGeometry x="1519.9999999999998" y="369.9999999999999" width="120" height="60" as="geometry"/>
                </mxCell>
                <mxCell id="104" value="WORK&#10;PACKAGE 2" style="whiteSpace=wrap;rounded=1;fillColor=#999999;strokeColor=none;shadow=1;fontColor=#FFFFFF;fontStyle=0" vertex="1" parent="1">
                    <mxGeometry x="1520" y="449.9999999999999" width="120" height="60" as="geometry"/>
                </mxCell>
                <mxCell id="105" value="WORK&#10;PACKAGE 3" style="whiteSpace=wrap;rounded=1;fillColor=#999999;strokeColor=none;shadow=1;fontColor=#FFFFFF;fontStyle=0" vertex="1" parent="1">
                    <mxGeometry x="1519.9999999999998" y="529.9999999999999" width="120" height="60" as="geometry"/>
                </mxCell>
                <mxCell id="106" value="WORK&#10;PACKAGE 4" style="whiteSpace=wrap;rounded=1;fillColor=#999999;strokeColor=none;shadow=1;fontColor=#FFFFFF;fontStyle=0" vertex="1" parent="1">
                    <mxGeometry x="1520" y="609.9999999999999" width="120" height="60" as="geometry"/>
                </mxCell>
                <mxCell id="107" value="WORK&#10;PACKAGE 5" style="whiteSpace=wrap;rounded=1;fillColor=#999999;strokeColor=none;shadow=1;fontColor=#FFFFFF;fontStyle=0" vertex="1" parent="1">
                    <mxGeometry x="1520" y="689.9999999999999" width="120" height="60" as="geometry"/>
                </mxCell>
                <mxCell id="108" value="WORK&#10;PACKAGE 1" style="whiteSpace=wrap;rounded=1;fillColor=#999999;strokeColor=none;shadow=1;fontColor=#FFFFFF;fontStyle=0" vertex="1" parent="1">
                    <mxGeometry x="1719.9999999999993" y="369.9999999999999" width="120" height="60" as="geometry"/>
                </mxCell>
                <mxCell id="109" value="WORK&#10;PACKAGE 2" style="whiteSpace=wrap;rounded=1;fillColor=#999999;strokeColor=none;shadow=1;fontColor=#FFFFFF;fontStyle=0" vertex="1" parent="1">
                    <mxGeometry x="1719.9999999999995" y="449.9999999999999" width="120" height="60" as="geometry"/>
                </mxCell>
                <mxCell id="110" value="WORK&#10;PACKAGE 3" style="whiteSpace=wrap;rounded=1;fillColor=#999999;strokeColor=none;shadow=1;fontColor=#FFFFFF;fontStyle=0" vertex="1" parent="1">
                    <mxGeometry x="1719.9999999999995" y="529.9999999999999" width="120" height="60" as="geometry"/>
                </mxCell>
                <mxCell id="111" value="WORK&#10;PACKAGE 4" style="whiteSpace=wrap;rounded=1;fillColor=#999999;strokeColor=none;shadow=1;fontColor=#FFFFFF;fontStyle=0" vertex="1" parent="1">
                    <mxGeometry x="1719.9999999999995" y="609.9999999999999" width="120" height="60" as="geometry"/>
                </mxCell>
                <mxCell id="112" value="WORK&#10;PACKAGE 5" style="whiteSpace=wrap;rounded=1;fillColor=#999999;strokeColor=none;shadow=1;fontColor=#FFFFFF;fontStyle=0" vertex="1" parent="1">
                    <mxGeometry x="1719.9999999999998" y="689.9999999999999" width="120" height="60" as="geometry"/>
                </mxCell>
                <mxCell id="113" value="" style="edgeStyle=elbowEdgeStyle;elbow=horizontal;rounded=0;fontColor=#000000;endArrow=none;endFill=0;strokeWidth=8;strokeColor=#23445D;" edge="1" parent="1" source="101" target="103">
                    <mxGeometry width="100" height="100" relative="1" as="geometry">
                        <mxPoint x="1500" y="300.0000000000002" as="sourcePoint"/>
                        <mxPoint x="1509.9999999999995" y="399.9999999999998" as="targetPoint"/>
                        <Array as="points">
                            <mxPoint x="1500" y="349.9999999999998"/>
                        </Array>
                    </mxGeometry>
                </mxCell>
                <mxCell id="114" value="" style="edgeStyle=elbowEdgeStyle;elbow=horizontal;rounded=0;fontColor=#000000;endArrow=none;endFill=0;strokeWidth=8;strokeColor=#23445D;" edge="1" parent="1" source="101" target="104">
                    <mxGeometry width="100" height="100" relative="1" as="geometry">
                        <mxPoint x="1510" y="299.9999999999998" as="sourcePoint"/>
                        <mxPoint x="1509.9999999999998" y="479.9999999999998" as="targetPoint"/>
                        <Array as="points">
                            <mxPoint x="1500" y="389.9999999999998"/>
                        </Array>
                    </mxGeometry>
                </mxCell>
                <mxCell id="115" value="" style="edgeStyle=elbowEdgeStyle;elbow=horizontal;rounded=0;fontColor=#000000;endArrow=none;endFill=0;strokeWidth=8;strokeColor=#23445D;" edge="1" parent="1" source="101" target="107">
                    <mxGeometry width="100" height="100" relative="1" as="geometry">
                        <mxPoint x="1510" y="299.9999999999998" as="sourcePoint"/>
                        <mxPoint x="1510" y="719.9999999999998" as="targetPoint"/>
                        <Array as="points">
                            <mxPoint x="1500" y="519.9999999999998"/>
                        </Array>
                    </mxGeometry>
                </mxCell>
                <mxCell id="116" value="" style="edgeStyle=elbowEdgeStyle;elbow=horizontal;rounded=0;fontColor=#000000;endArrow=none;endFill=0;strokeWidth=8;strokeColor=#23445D;" edge="1" parent="1" source="101" target="106">
                    <mxGeometry width="100" height="100" relative="1" as="geometry">
                        <mxPoint x="1510" y="299.9999999999998" as="sourcePoint"/>
                        <mxPoint x="1510" y="639.9999999999998" as="targetPoint"/>
                        <Array as="points">
                            <mxPoint x="1500" y="469.9999999999998"/>
                        </Array>
                    </mxGeometry>
                </mxCell>
                <mxCell id="117" value="" style="edgeStyle=elbowEdgeStyle;elbow=horizontal;rounded=0;fontColor=#000000;endArrow=none;endFill=0;strokeWidth=8;strokeColor=#23445D;" edge="1" parent="1" source="101" target="105">
                    <mxGeometry width="100" height="100" relative="1" as="geometry">
                        <mxPoint x="1510" y="299.9999999999998" as="sourcePoint"/>
                        <mxPoint x="1509.9999999999998" y="559.9999999999998" as="targetPoint"/>
                        <Array as="points">
                            <mxPoint x="1500" y="439.9999999999998"/>
                        </Array>
                    </mxGeometry>
                </mxCell>
                <mxCell id="118" value="" style="edgeStyle=elbowEdgeStyle;elbow=horizontal;rounded=0;fontColor=#000000;endArrow=none;endFill=0;strokeWidth=8;strokeColor=#23445D;" edge="1" parent="1" source="102" target="108">
                    <mxGeometry width="100" height="100" relative="1" as="geometry">
                        <mxPoint x="1690" y="300.0000000000002" as="sourcePoint"/>
                        <mxPoint x="1699.9999999999995" y="399.9999999999998" as="targetPoint"/>
                        <Array as="points">
                            <mxPoint x="1700" y="349.9999999999998"/>
                        </Array>
                    </mxGeometry>
                </mxCell>
                <mxCell id="119" value="" style="edgeStyle=elbowEdgeStyle;elbow=horizontal;rounded=0;fontColor=#000000;endArrow=none;endFill=0;strokeWidth=8;strokeColor=#23445D;" edge="1" parent="1" source="102" target="109">
                    <mxGeometry width="100" height="100" relative="1" as="geometry">
                        <mxPoint x="1700" y="299.9999999999998" as="sourcePoint"/>
                        <mxPoint x="1699.9999999999998" y="479.9999999999998" as="targetPoint"/>
                        <Array as="points">
                            <mxPoint x="1700" y="389.9999999999998"/>
                        </Array>
                    </mxGeometry>
                </mxCell>
                <mxCell id="120" value="" style="edgeStyle=elbowEdgeStyle;elbow=horizontal;rounded=0;fontColor=#000000;endArrow=none;endFill=0;strokeWidth=8;strokeColor=#23445D;" edge="1" parent="1" source="102" target="112">
                    <mxGeometry width="100" height="100" relative="1" as="geometry">
                        <mxPoint x="1700" y="299.9999999999998" as="sourcePoint"/>
                        <mxPoint x="1700" y="719.9999999999998" as="targetPoint"/>
                        <Array as="points">
                            <mxPoint x="1700" y="509.9999999999998"/>
                        </Array>
                    </mxGeometry>
                </mxCell>
                <mxCell id="121" value="" style="edgeStyle=elbowEdgeStyle;elbow=horizontal;rounded=0;fontColor=#000000;endArrow=none;endFill=0;strokeWidth=8;strokeColor=#23445D;" edge="1" parent="1" source="102" target="111">
                    <mxGeometry width="100" height="100" relative="1" as="geometry">
                        <mxPoint x="1700" y="299.9999999999998" as="sourcePoint"/>
                        <mxPoint x="1700" y="639.9999999999998" as="targetPoint"/>
                        <Array as="points">
                            <mxPoint x="1700" y="469.9999999999998"/>
                        </Array>
                    </mxGeometry>
                </mxCell>
                <mxCell id="122" value="" style="edgeStyle=elbowEdgeStyle;elbow=horizontal;rounded=0;fontColor=#000000;endArrow=none;endFill=0;strokeWidth=8;strokeColor=#23445D;" edge="1" parent="1" source="102" target="110">
                    <mxGeometry width="100" height="100" relative="1" as="geometry">
                        <mxPoint x="1700" y="299.9999999999998" as="sourcePoint"/>
                        <mxPoint x="1699.9999999999998" y="559.9999999999998" as="targetPoint"/>
                        <Array as="points">
                            <mxPoint x="1700" y="439.9999999999998"/>
                        </Array>
                    </mxGeometry>
                </mxCell>
                <mxCell id="123" value="SUB-TASK 1" style="whiteSpace=wrap;rounded=1;fillColor=#12AAB5;strokeColor=none;shadow=1;fontColor=#FFFFFF;" vertex="1" parent="1">
                    <mxGeometry x="1889.9999999999998" y="269.9999999999997" width="120" height="60" as="geometry"/>
                </mxCell>
                <mxCell id="124" value="SUB-TASK 2" style="whiteSpace=wrap;rounded=1;fillColor=#12AAB5;strokeColor=none;shadow=1;fontColor=#FFFFFF;" vertex="1" parent="1">
                    <mxGeometry x="2090" y="269.9999999999997" width="120" height="60" as="geometry"/>
                </mxCell>
                <mxCell id="125" value="WORK&#10;PACKAGE 1" style="whiteSpace=wrap;rounded=1;fillColor=#999999;strokeColor=none;shadow=1;fontColor=#FFFFFF;fontStyle=0" vertex="1" parent="1">
                    <mxGeometry x="1889.9999999999998" y="369.9999999999997" width="120" height="60" as="geometry"/>
                </mxCell>
                <mxCell id="126" value="WORK&#10;PACKAGE 2" style="whiteSpace=wrap;rounded=1;fillColor=#999999;strokeColor=none;shadow=1;fontColor=#FFFFFF;fontStyle=0" vertex="1" parent="1">
                    <mxGeometry x="1890" y="449.9999999999997" width="120" height="60" as="geometry"/>
                </mxCell>
                <mxCell id="127" value="WORK&#10;PACKAGE 3" style="whiteSpace=wrap;rounded=1;fillColor=#999999;strokeColor=none;shadow=1;fontColor=#FFFFFF;fontStyle=0" vertex="1" parent="1">
                    <mxGeometry x="1889.9999999999998" y="529.9999999999997" width="120" height="60" as="geometry"/>
                </mxCell>
                <mxCell id="128" value="WORK&#10;PACKAGE 4" style="whiteSpace=wrap;rounded=1;fillColor=#999999;strokeColor=none;shadow=1;fontColor=#FFFFFF;fontStyle=0" vertex="1" parent="1">
                    <mxGeometry x="1890" y="609.9999999999997" width="120" height="60" as="geometry"/>
                </mxCell>
                <mxCell id="129" value="WORK&#10;PACKAGE 5" style="whiteSpace=wrap;rounded=1;fillColor=#999999;strokeColor=none;shadow=1;fontColor=#FFFFFF;fontStyle=0" vertex="1" parent="1">
                    <mxGeometry x="1890" y="689.9999999999997" width="120" height="60" as="geometry"/>
                </mxCell>
                <mxCell id="130" value="WORK&#10;PACKAGE 1" style="whiteSpace=wrap;rounded=1;fillColor=#999999;strokeColor=none;shadow=1;fontColor=#FFFFFF;fontStyle=0" vertex="1" parent="1">
                    <mxGeometry x="2089.999999999999" y="369.9999999999997" width="120" height="60" as="geometry"/>
                </mxCell>
                <mxCell id="131" value="WORK&#10;PACKAGE 2" style="whiteSpace=wrap;rounded=1;fillColor=#999999;strokeColor=none;shadow=1;fontColor=#FFFFFF;fontStyle=0" vertex="1" parent="1">
                    <mxGeometry x="2089.9999999999995" y="449.9999999999997" width="120" height="60" as="geometry"/>
                </mxCell>
                <mxCell id="132" value="WORK&#10;PACKAGE 3" style="whiteSpace=wrap;rounded=1;fillColor=#999999;strokeColor=none;shadow=1;fontColor=#FFFFFF;fontStyle=0" vertex="1" parent="1">
                    <mxGeometry x="2089.9999999999995" y="529.9999999999997" width="120" height="60" as="geometry"/>
                </mxCell>
                <mxCell id="133" value="WORK&#10;PACKAGE 4" style="whiteSpace=wrap;rounded=1;fillColor=#999999;strokeColor=none;shadow=1;fontColor=#FFFFFF;fontStyle=0" vertex="1" parent="1">
                    <mxGeometry x="2089.9999999999995" y="609.9999999999997" width="120" height="60" as="geometry"/>
                </mxCell>
                <mxCell id="134" value="WORK&#10;PACKAGE 5" style="whiteSpace=wrap;rounded=1;fillColor=#999999;strokeColor=none;shadow=1;fontColor=#FFFFFF;fontStyle=0" vertex="1" parent="1">
                    <mxGeometry x="2090" y="689.9999999999997" width="120" height="60" as="geometry"/>
                </mxCell>
                <mxCell id="135" value="" style="edgeStyle=elbowEdgeStyle;elbow=horizontal;rounded=0;fontColor=#000000;endArrow=none;endFill=0;strokeWidth=8;strokeColor=#23445D;" edge="1" parent="1" source="123" target="125">
                    <mxGeometry width="100" height="100" relative="1" as="geometry">
                        <mxPoint x="1870" y="300.00000000000006" as="sourcePoint"/>
                        <mxPoint x="1879.9999999999995" y="399.9999999999996" as="targetPoint"/>
                        <Array as="points">
                            <mxPoint x="1870" y="349.9999999999996"/>
                        </Array>
                    </mxGeometry>
                </mxCell>
                <mxCell id="136" value="" style="edgeStyle=elbowEdgeStyle;elbow=horizontal;rounded=0;fontColor=#000000;endArrow=none;endFill=0;strokeWidth=8;strokeColor=#23445D;" edge="1" parent="1" source="123" target="126">
                    <mxGeometry width="100" height="100" relative="1" as="geometry">
                        <mxPoint x="1880" y="299.9999999999996" as="sourcePoint"/>
                        <mxPoint x="1879.9999999999998" y="479.99999999999955" as="targetPoint"/>
                        <Array as="points">
                            <mxPoint x="1870" y="389.9999999999996"/>
                        </Array>
                    </mxGeometry>
                </mxCell>
                <mxCell id="137" value="" style="edgeStyle=elbowEdgeStyle;elbow=horizontal;rounded=0;fontColor=#000000;endArrow=none;endFill=0;strokeWidth=8;strokeColor=#23445D;" edge="1" parent="1" source="123" target="129">
                    <mxGeometry width="100" height="100" relative="1" as="geometry">
                        <mxPoint x="1880" y="299.9999999999996" as="sourcePoint"/>
                        <mxPoint x="1880" y="719.9999999999995" as="targetPoint"/>
                        <Array as="points">
                            <mxPoint x="1870" y="519.9999999999995"/>
                        </Array>
                    </mxGeometry>
                </mxCell>
                <mxCell id="138" value="" style="edgeStyle=elbowEdgeStyle;elbow=horizontal;rounded=0;fontColor=#000000;endArrow=none;endFill=0;strokeWidth=8;strokeColor=#23445D;" edge="1" parent="1" source="123" target="128">
                    <mxGeometry width="100" height="100" relative="1" as="geometry">
                        <mxPoint x="1880" y="299.9999999999996" as="sourcePoint"/>
                        <mxPoint x="1880" y="639.9999999999995" as="targetPoint"/>
                        <Array as="points">
                            <mxPoint x="1870" y="469.99999999999955"/>
                        </Array>
                    </mxGeometry>
                </mxCell>
                <mxCell id="139" value="" style="edgeStyle=elbowEdgeStyle;elbow=horizontal;rounded=0;fontColor=#000000;endArrow=none;endFill=0;strokeWidth=8;strokeColor=#23445D;" edge="1" parent="1" source="123" target="127">
                    <mxGeometry width="100" height="100" relative="1" as="geometry">
                        <mxPoint x="1880" y="299.9999999999996" as="sourcePoint"/>
                        <mxPoint x="1879.9999999999998" y="559.9999999999995" as="targetPoint"/>
                        <Array as="points">
                            <mxPoint x="1870" y="439.9999999999996"/>
                        </Array>
                    </mxGeometry>
                </mxCell>
                <mxCell id="140" value="" style="edgeStyle=elbowEdgeStyle;elbow=horizontal;rounded=0;fontColor=#000000;endArrow=none;endFill=0;strokeWidth=8;strokeColor=#23445D;" edge="1" parent="1" source="124" target="130">
                    <mxGeometry width="100" height="100" relative="1" as="geometry">
                        <mxPoint x="2060" y="300.00000000000006" as="sourcePoint"/>
                        <mxPoint x="2069.9999999999995" y="399.9999999999996" as="targetPoint"/>
                        <Array as="points">
                            <mxPoint x="2070" y="349.9999999999996"/>
                        </Array>
                    </mxGeometry>
                </mxCell>
                <mxCell id="141" value="" style="edgeStyle=elbowEdgeStyle;elbow=horizontal;rounded=0;fontColor=#000000;endArrow=none;endFill=0;strokeWidth=8;strokeColor=#23445D;" edge="1" parent="1" source="124" target="131">
                    <mxGeometry width="100" height="100" relative="1" as="geometry">
                        <mxPoint x="2070" y="299.9999999999996" as="sourcePoint"/>
                        <mxPoint x="2070" y="479.99999999999955" as="targetPoint"/>
                        <Array as="points">
                            <mxPoint x="2070" y="389.9999999999996"/>
                        </Array>
                    </mxGeometry>
                </mxCell>
                <mxCell id="142" value="" style="edgeStyle=elbowEdgeStyle;elbow=horizontal;rounded=0;fontColor=#000000;endArrow=none;endFill=0;strokeWidth=8;strokeColor=#23445D;" edge="1" parent="1" source="124" target="134">
                    <mxGeometry width="100" height="100" relative="1" as="geometry">
                        <mxPoint x="2070" y="299.9999999999996" as="sourcePoint"/>
                        <mxPoint x="2070" y="719.9999999999995" as="targetPoint"/>
                        <Array as="points">
                            <mxPoint x="2070" y="509.99999999999955"/>
                        </Array>
                    </mxGeometry>
                </mxCell>
                <mxCell id="143" value="" style="edgeStyle=elbowEdgeStyle;elbow=horizontal;rounded=0;fontColor=#000000;endArrow=none;endFill=0;strokeWidth=8;strokeColor=#23445D;" edge="1" parent="1" source="124" target="133">
                    <mxGeometry width="100" height="100" relative="1" as="geometry">
                        <mxPoint x="2070" y="299.9999999999996" as="sourcePoint"/>
                        <mxPoint x="2070" y="639.9999999999995" as="targetPoint"/>
                        <Array as="points">
                            <mxPoint x="2070" y="469.99999999999955"/>
                        </Array>
                    </mxGeometry>
                </mxCell>
                <mxCell id="144" value="" style="edgeStyle=elbowEdgeStyle;elbow=horizontal;rounded=0;fontColor=#000000;endArrow=none;endFill=0;strokeWidth=8;strokeColor=#23445D;" edge="1" parent="1" source="124" target="132">
                    <mxGeometry width="100" height="100" relative="1" as="geometry">
                        <mxPoint x="2070" y="299.9999999999996" as="sourcePoint"/>
                        <mxPoint x="2070" y="559.9999999999995" as="targetPoint"/>
                        <Array as="points">
                            <mxPoint x="2070" y="439.9999999999996"/>
                        </Array>
                    </mxGeometry>
                </mxCell>
                <mxCell id="145" value="" style="edgeStyle=elbowEdgeStyle;elbow=vertical;rounded=0;fontColor=#000000;endArrow=none;endFill=0;strokeWidth=8;strokeColor=#23445D;" edge="1" parent="1" source="6" target="57">
                    <mxGeometry width="100" height="100" relative="1" as="geometry">
                        <mxPoint x="750" y="240" as="sourcePoint"/>
                        <mxPoint x="850" y="140" as="targetPoint"/>
                    </mxGeometry>
                </mxCell>
                <mxCell id="146" value="" style="edgeStyle=elbowEdgeStyle;elbow=vertical;rounded=0;fontColor=#000000;endArrow=none;endFill=0;strokeWidth=8;strokeColor=#23445D;" edge="1" parent="1" source="6" target="58">
                    <mxGeometry width="100" height="100" relative="1" as="geometry">
                        <mxPoint x="1000" y="250" as="sourcePoint"/>
                        <mxPoint x="1100" y="150" as="targetPoint"/>
                    </mxGeometry>
                </mxCell>
                <mxCell id="147" value="" style="edgeStyle=elbowEdgeStyle;elbow=vertical;rounded=0;fontColor=#000000;endArrow=none;endFill=0;strokeWidth=8;strokeColor=#23445D;" edge="1" parent="1" source="7" target="79">
                    <mxGeometry width="100" height="100" relative="1" as="geometry">
                        <mxPoint x="1310" y="270" as="sourcePoint"/>
                        <mxPoint x="1210" y="160" as="targetPoint"/>
                    </mxGeometry>
                </mxCell>
                <mxCell id="148" value="" style="edgeStyle=elbowEdgeStyle;elbow=vertical;rounded=0;fontColor=#000000;endArrow=none;endFill=0;strokeWidth=8;strokeColor=#23445D;" edge="1" parent="1" source="7" target="80">
                    <mxGeometry width="100" height="100" relative="1" as="geometry">
                        <mxPoint x="1400" y="260" as="sourcePoint"/>
                        <mxPoint x="1500" y="160" as="targetPoint"/>
                    </mxGeometry>
                </mxCell>
                <mxCell id="149" value="" style="edgeStyle=elbowEdgeStyle;elbow=vertical;rounded=0;fontColor=#000000;endArrow=none;endFill=0;strokeWidth=8;strokeColor=#23445D;" edge="1" parent="1" source="8" target="101">
                    <mxGeometry width="100" height="100" relative="1" as="geometry">
                        <mxPoint x="1520" y="260" as="sourcePoint"/>
                        <mxPoint x="1620" y="160" as="targetPoint"/>
                    </mxGeometry>
                </mxCell>
                <mxCell id="150" value="" style="edgeStyle=elbowEdgeStyle;elbow=vertical;rounded=0;fontColor=#000000;endArrow=none;endFill=0;strokeWidth=8;strokeColor=#23445D;" edge="1" parent="1" source="8" target="102">
                    <mxGeometry width="100" height="100" relative="1" as="geometry">
                        <mxPoint x="1750" y="260" as="sourcePoint"/>
                        <mxPoint x="1850" y="160" as="targetPoint"/>
                    </mxGeometry>
                </mxCell>
                <mxCell id="151" value="" style="edgeStyle=elbowEdgeStyle;elbow=vertical;rounded=0;fontColor=#000000;endArrow=none;endFill=0;strokeWidth=8;strokeColor=#23445D;" edge="1" parent="1" source="5" target="123">
                    <mxGeometry width="100" height="100" relative="1" as="geometry">
                        <mxPoint x="1870" y="260" as="sourcePoint"/>
                        <mxPoint x="1970" y="160" as="targetPoint"/>
                    </mxGeometry>
                </mxCell>
                <mxCell id="152" value="" style="edgeStyle=elbowEdgeStyle;elbow=vertical;rounded=0;fontColor=#000000;endArrow=none;endFill=0;strokeWidth=8;strokeColor=#23445D;" edge="1" parent="1" source="5" target="124">
                    <mxGeometry width="100" height="100" relative="1" as="geometry">
                        <mxPoint x="2130" y="260" as="sourcePoint"/>
                        <mxPoint x="2230" y="160" as="targetPoint"/>
                    </mxGeometry>
                </mxCell>
                <mxCell id="153" value="" style="edgeStyle=elbowEdgeStyle;elbow=vertical;rounded=0;fontColor=#000000;endArrow=none;endFill=0;strokeWidth=8;strokeColor=#23445D;" edge="1" parent="1" source="2" target="3">
                    <mxGeometry width="100" height="100" relative="1" as="geometry">
                        <mxPoint x="510" y="110" as="sourcePoint"/>
                        <mxPoint x="610" y="10" as="targetPoint"/>
                    </mxGeometry>
                </mxCell>
                <mxCell id="154" value="" style="edgeStyle=elbowEdgeStyle;elbow=vertical;rounded=0;fontColor=#000000;endArrow=none;endFill=0;strokeWidth=8;strokeColor=#23445D;" edge="1" parent="1" source="2" target="4">
                    <mxGeometry width="100" height="100" relative="1" as="geometry">
                        <mxPoint x="520" y="120" as="sourcePoint"/>
                        <mxPoint x="620" y="20" as="targetPoint"/>
                    </mxGeometry>
                </mxCell>
                <mxCell id="155" value="" style="edgeStyle=elbowEdgeStyle;elbow=vertical;rounded=0;fontColor=#000000;endArrow=none;endFill=0;strokeWidth=8;strokeColor=#23445D;" edge="1" parent="1" source="2" target="6">
                    <mxGeometry width="100" height="100" relative="1" as="geometry">
                        <mxPoint x="530" y="130" as="sourcePoint"/>
                        <mxPoint x="630" y="30" as="targetPoint"/>
                    </mxGeometry>
                </mxCell>
                <mxCell id="156" value="" style="edgeStyle=elbowEdgeStyle;elbow=vertical;rounded=0;fontColor=#000000;endArrow=none;endFill=0;strokeWidth=8;strokeColor=#23445D;" edge="1" parent="1" source="2" target="7">
                    <mxGeometry width="100" height="100" relative="1" as="geometry">
                        <mxPoint x="540" y="140" as="sourcePoint"/>
                        <mxPoint x="640" y="40" as="targetPoint"/>
                    </mxGeometry>
                </mxCell>
                <mxCell id="157" value="" style="edgeStyle=elbowEdgeStyle;elbow=vertical;rounded=0;fontColor=#000000;endArrow=none;endFill=0;strokeWidth=8;strokeColor=#23445D;" edge="1" parent="1" source="2" target="8">
                    <mxGeometry width="100" height="100" relative="1" as="geometry">
                        <mxPoint x="550" y="150" as="sourcePoint"/>
                        <mxPoint x="650" y="50" as="targetPoint"/>
                    </mxGeometry>
                </mxCell>
                <mxCell id="158" value="" style="edgeStyle=elbowEdgeStyle;elbow=vertical;rounded=0;fontColor=#000000;endArrow=none;endFill=0;strokeWidth=8;strokeColor=#23445D;" edge="1" parent="1" source="2" target="5">
                    <mxGeometry width="100" height="100" relative="1" as="geometry">
                        <mxPoint x="560" y="160" as="sourcePoint"/>
                        <mxPoint x="660" y="60" as="targetPoint"/>
                    </mxGeometry>
                </mxCell>
            </root>
        </mxGraphModel>
    </diagram>
</mxfile>